<?xml version="1.0" encoding="UTF-8"?>
<svg version="1.1" xmlns="http://www.w3.org/2000/svg" width="260" height="240">
<path d="M0 0 C43.23 0 86.46 0 131 0 C131 15.30232652 131 15.30232652 129.8125 22.75 C129.6779541 23.60070068 129.5434082 24.45140137 129.40478516 25.32788086 C124.82706092 52.60369949 112.23837443 76.28832258 93 96 C92.22269531 96.85078125 91.44539063 97.7015625 90.64453125 98.578125 C72.57776326 117.82513411 46.76921869 129.11416544 21 133 C14.07 133 7.14 133 0 133 C0 89.11 0 45.22 0 0 Z " fill="#8ED4CF" transform="translate(128,107)"/>
<path d="M0 0 C36.3 0 72.6 0 110 0 C100.60365397 23.49086509 75.35766809 41.17764045 52.95703125 51.16845703 C35.24250517 58.6953627 19.54066476 60 0 60 C0 40.2 0 20.4 0 0 Z " fill="#4A4D9F" transform="translate(128,180)"/>
<path d="M0 0 C1.52463867 0.01027222 1.52463867 0.01027222 3.08007812 0.02075195 C10.20449569 0.17366349 16.33525973 0.85010593 22.625 4.4375 C23.60919922 4.9634375 23.60919922 4.9634375 24.61328125 5.5 C30.66006167 9.22906373 34.92452463 15.50107658 37 22.25 C37.625 25.4375 37.625 25.4375 37.625 29.4375 C33.005 29.4375 28.385 29.4375 23.625 29.4375 C22.6040625 27.3646875 22.6040625 27.3646875 21.5625 25.25 C18.21899251 19.27676751 14.28281256 16.01306987 7.6875 14.125 C-0.70593825 12.4495344 -9.00459557 13.15388129 -16.42578125 17.69140625 C-22.28332895 22.29466108 -25.20511578 28.15331523 -26.375 35.4375 C-27.12390891 44.81326352 -25.98794541 54.29303191 -20.015625 61.90234375 C-14.78812611 66.79378914 -7.52675187 69.65421975 -0.375 69.4375 C6.89939854 68.87793088 12.54353348 66.80061824 17.625 61.4375 C19.90004259 57.94910136 21.31291643 54.3737507 22.625 50.4375 C15.695 50.4375 8.765 50.4375 1.625 50.4375 C1.625 46.4775 1.625 42.5175 1.625 38.4375 C13.505 38.4375 25.385 38.4375 37.625 38.4375 C37.625 52.2975 37.625 66.1575 37.625 80.4375 C34.325 80.4375 31.025 80.4375 27.625 80.4375 C27.56441406 79.66664063 27.50382813 78.89578125 27.44140625 78.1015625 C27.31572266 76.59722656 27.31572266 76.59722656 27.1875 75.0625 C27.10628906 74.06476563 27.02507812 73.06703125 26.94140625 72.0390625 C26.77534374 69.45822387 26.77534374 69.45822387 25.625 67.4375 C25.27308594 67.95699219 24.92117188 68.47648437 24.55859375 69.01171875 C19.30428873 76.43359607 14.58779709 80.33295032 5.625 82.4375 C-6.10957241 83.74825362 -16.78552093 82.49976379 -26.6875 75.6875 C-34.21239262 69.50139196 -38.61931558 62.04444733 -40.375 52.4375 C-41.63487819 38.60046877 -41.4700844 25.25442729 -33.1875 13.5625 C-24.32129698 3.12722481 -13.30268574 -0.13701679 0 0 Z " fill="#8ED4CF" transform="translate(732.375,98.5625)"/>
<path d="M0 0 C0.97018066 0.00757324 1.94036133 0.01514648 2.93994141 0.02294922 C9.94380544 0.18429601 15.94995819 0.90259234 22.125 4.4375 C22.85589844 4.85 23.58679688 5.2625 24.33984375 5.6875 C29.93991698 9.35831151 33.55069597 14.28428549 36.125 20.4375 C36.82935764 23.86133119 37.02456055 26.92211935 37.125 30.4375 C32.835 30.4375 28.545 30.4375 24.125 30.4375 C23.568125 29.055625 23.01125 27.67375 22.4375 26.25 C20.19340827 21.30368016 18.08637476 17.72076239 12.8984375 15.47265625 C3.66426781 12.37077572 -4.89544107 12.49779285 -13.875 16.4375 C-20.04139059 20.21500263 -23.35915235 25.50336502 -25.45703125 32.33203125 C-27.35548847 41.89528769 -25.6689192 50.94328244 -20.77734375 59.31640625 C-17.18312476 64.17773973 -12.01192476 66.49642257 -6.375 68.1875 C2.43219198 69.0682192 10.78623712 68.3387756 18.0625 62.8125 C21.84412975 59.28060052 22.85547147 55.36625782 24.125 50.4375 C28.745 50.4375 33.365 50.4375 38.125 50.4375 C37.61075519 59.69390656 34.04075926 67.62653434 27.109375 73.90625 C16.85643431 81.81796801 4.33368481 83.30060264 -8.25 81.875 C-18.19978306 80.09784876 -26.96677212 75.629624 -33.30859375 67.62890625 C-38.79763384 59.53379371 -40.42575818 50.69747171 -40.3125 41.0625 C-40.30420166 40.1456543 -40.29590332 39.22880859 -40.28735352 38.28417969 C-40.00414088 26.88713886 -37.10129355 17.61511725 -28.875 9.4375 C-20.17213658 2.18246212 -11.17025581 -0.12189955 0 0 Z " fill="#4A4C9F" transform="translate(400.875,98.5625)"/>
<path d="M0 0 C0.5671875 0.391875 1.134375 0.78375 1.71875 1.1875 C2.811875 1.909375 3.905 2.63125 5.03125 3.375 C11.73665674 10.39228612 12.78434692 18.71530444 12.71875 28.1875 C12.38875 29.1775 12.05875 30.1675 11.71875 31.1875 C-3.13125 31.1875 -17.98125 31.1875 -33.28125 31.1875 C-31.02229928 38.66525398 -31.02229928 38.66525398 -25.57421875 42.5625 C-20.05180694 44.06775705 -13.61119479 44.40063974 -8.1796875 42.421875 C-4.96693128 40.42775045 -3.99929057 38.62358113 -2.28125 35.1875 C2.33875 35.1875 6.95875 35.1875 11.71875 35.1875 C10.53838734 42.26967596 8.39380998 47.49796649 2.4609375 51.83984375 C-7.19867444 57.33912778 -19.58596874 58.07465284 -30.35546875 55.43359375 C-37.90594731 52.16471084 -42.58468626 47.33471345 -46.109375 39.94921875 C-47.54208152 35.35023083 -47.83396096 31.22993533 -47.84375 26.4375 C-47.84608643 25.64593506 -47.84842285 24.85437012 -47.85083008 24.03881836 C-47.62754258 16.0975859 -45.4203366 9.61716317 -40.02734375 3.7265625 C-30.42675428 -4.73570205 -11.00114196 -6.28636683 0 0 Z M-31.15625 14.0625 C-33.63559938 17.27264116 -33.63559938 17.27264116 -34.28125 22.1875 C-23.39125 22.1875 -12.50125 22.1875 -1.28125 22.1875 C-2.24469525 14.72062925 -2.24469525 14.72062925 -7.28125 10.1875 C-14.94983976 5.71415598 -25.28565309 7.554524 -31.15625 14.0625 Z " fill="#8ED4CF" transform="translate(825.28125,123.8125)"/>
<path d="M0 0 C0.5671875 0.391875 1.134375 0.78375 1.71875 1.1875 C2.811875 1.909375 3.905 2.63125 5.03125 3.375 C11.73665674 10.39228612 12.78434692 18.71530444 12.71875 28.1875 C12.38875 29.1775 12.05875 30.1675 11.71875 31.1875 C-3.13125 31.1875 -17.98125 31.1875 -33.28125 31.1875 C-31.02229928 38.66525398 -31.02229928 38.66525398 -25.57421875 42.5625 C-20.05180694 44.06775705 -13.61119479 44.40063974 -8.1796875 42.421875 C-4.96693128 40.42775045 -3.99929057 38.62358113 -2.28125 35.1875 C2.33875 35.1875 6.95875 35.1875 11.71875 35.1875 C10.53838734 42.26967596 8.39380998 47.49796649 2.4609375 51.83984375 C-7.19867444 57.33912778 -19.58596874 58.07465284 -30.35546875 55.43359375 C-37.90594731 52.16471084 -42.58468626 47.33471345 -46.109375 39.94921875 C-47.54208152 35.35023083 -47.83396096 31.22993533 -47.84375 26.4375 C-47.84608643 25.64593506 -47.84842285 24.85437012 -47.85083008 24.03881836 C-47.62754258 16.0975859 -45.4203366 9.61716317 -40.02734375 3.7265625 C-30.42675428 -4.73570205 -11.00114196 -6.28636683 0 0 Z M-31.15625 14.0625 C-33.63559938 17.27264116 -33.63559938 17.27264116 -34.28125 22.1875 C-23.39125 22.1875 -12.50125 22.1875 -1.28125 22.1875 C-2.24469525 14.72062925 -2.24469525 14.72062925 -7.28125 10.1875 C-14.94983976 5.71415598 -25.28565309 7.554524 -31.15625 14.0625 Z " fill="#4A4C9F" transform="translate(673.28125,123.8125)"/>
<path d="M0 0 C0.94681641 -0.02449219 1.89363281 -0.04898438 2.86914062 -0.07421875 C10.34575584 -0.10509259 16.56470782 1.26412411 22.34375 6.2265625 C22.7871875 6.81179687 23.230625 7.39703125 23.6875 8 C24.1515625 8.59039062 24.615625 9.18078125 25.09375 9.7890625 C27.768444 13.6673688 27.26203862 16.75360546 27.1875 21.375 C22.8975 21.375 18.6075 21.375 14.1875 21.375 C13.754375 20.26125 13.32125 19.1475 12.875 18 C11.48838881 14.19987666 11.48838881 14.19987666 8.1875 12.375 C1.78428675 10.96470081 -3.62381534 11.34961229 -9.8125 13.375 C-11.10883621 14.44145115 -11.10883621 14.44145115 -10.875 16.9375 C-10.854375 17.741875 -10.83375 18.54625 -10.8125 19.375 C-4.03554638 22.1516685 2.55317294 23.51272069 9.765625 24.66015625 C15.70019052 25.72510129 20.4856175 27.504302 25.1875 31.375 C28.58321924 36.46857886 27.72789909 42.43060999 27.1875 48.375 C24.81201143 53.88613349 21.41091747 55.85656658 16.1875 58.375 C11.52910842 59.80798806 6.83241063 59.59813462 2 59.625 C1.09185547 59.645625 0.18371094 59.66625 -0.75195312 59.6875 C-8.09781212 59.72956648 -14.28413652 58.49201809 -20.625 54.6875 C-25.47813238 49.55704577 -26.8125 45.45658054 -26.8125 38.375 C-22.5225 38.375 -18.2325 38.375 -13.8125 38.375 C-13.420625 39.303125 -13.02875 40.23125 -12.625 41.1875 C-10.57318167 44.79587016 -9.54032276 45.67458962 -5.8125 47.375 C-3.01056237 47.63715312 -0.47634493 47.75099829 2.3125 47.6875 C3.38564453 47.69233398 3.38564453 47.69233398 4.48046875 47.69726562 C8.23874322 47.65862916 9.99130101 47.50579933 13.1875 45.375 C13.4377157 42.29134129 13.4377157 42.29134129 13.1875 39.375 C9.84199616 37.93368746 6.76389302 37.00581429 3.16796875 36.4453125 C2.22759766 36.28933594 1.28722656 36.13335937 0.31835938 35.97265625 C-1.6312416 35.65958164 -3.58176793 35.3522118 -5.53320312 35.05078125 C-12.30575556 33.91354719 -18.79514541 32.48968861 -23.75 27.375 C-26.02387015 23.09477383 -26.1397747 19.20230176 -25.8125 14.375 C-24.04391901 8.67623903 -21.72356791 5.74534073 -16.8125 2.375 C-11.29191289 -0.06055314 -5.92720126 0.00797203 0 0 Z " fill="#8ED4CF" transform="translate(1018.8125,120.625)"/>
<path d="M0 0 C7.27790028 4.99824669 11.12135174 11.83960165 13.0078125 20.37890625 C14.25034749 30.89561994 12.47551465 40.36901957 5.8828125 48.81640625 C0.20803332 54.72108054 -7.33136891 56.89703744 -15.3515625 57.4140625 C-23.14828175 57.31026002 -31.62623067 56.20677955 -37.9921875 51.37890625 C-45.65235841 43.36975261 -47.59265429 35.38195093 -47.54296875 24.66333008 C-47.28341153 16.26908721 -45.03977224 9.4666456 -39.0234375 3.390625 C-29.08811357 -4.61495332 -11.42233131 -5.71116566 0 0 Z M-30.4296875 13.75390625 C-34.10768637 19.93294435 -34.78787653 25.27738164 -33.9921875 32.37890625 C-32.66855155 36.90634284 -30.76699749 39.69214285 -27.2421875 42.81640625 C-21.63568518 45.51184006 -17.21261217 45.96512941 -11.3046875 44.31640625 C-7.04502086 42.67129361 -4.07460354 40.5090314 -1.9921875 36.37890625 C0.30051384 29.89761593 0.65409122 23.78693544 -1.9921875 17.37890625 C-4.09454498 13.43039256 -6.30329806 11.03511561 -10.515625 9.3984375 C-18.04923008 7.65747834 -24.7391431 8.20927325 -30.4296875 13.75390625 Z " fill="#4A4C9F" transform="translate(491.9921875,123.62109375)"/>
<path d="M0 0 C6.25560121 7.4079488 6.5305769 15.70385997 6.47265625 24.9296875 C6.4712413 25.78684357 6.46982635 26.64399963 6.46836853 27.52713013 C6.46280022 30.2472899 6.45025364 32.96736538 6.4375 35.6875 C6.4324809 37.53906131 6.42791871 39.39062391 6.42382812 41.2421875 C6.41284117 45.76565715 6.39559852 50.28906432 6.375 54.8125 C2.085 54.8125 -2.205 54.8125 -6.625 54.8125 C-6.654729 53.38369507 -6.654729 53.38369507 -6.68505859 51.92602539 C-6.76179437 48.35302668 -6.85039978 44.78039966 -6.94238281 41.20776367 C-6.98039443 39.66877645 -7.01529293 38.12970876 -7.046875 36.59057617 C-6.52144738 22.85275768 -6.52144738 22.85275768 -11.3828125 10.77734375 C-15.95272519 8.81084822 -20.76817948 9.2273409 -25.625 9.8125 C-30.13834264 11.95039915 -32.56785326 14.265123 -34.625 18.8125 C-35.5217365 23.20733806 -35.8074398 27.48263046 -35.94140625 31.9609375 C-35.96218735 32.61832916 -35.98296844 33.27572083 -36.00437927 33.95303345 C-36.06920753 36.03109362 -36.12844564 38.10926856 -36.1875 40.1875 C-36.23074888 41.60548011 -36.27436509 43.02344907 -36.31835938 44.44140625 C-36.42550355 47.8983222 -36.52506973 51.35533804 -36.625 54.8125 C-40.915 54.8125 -45.205 54.8125 -49.625 54.8125 C-49.625 36.0025 -49.625 17.1925 -49.625 -2.1875 C-45.335 -2.1875 -41.045 -2.1875 -36.625 -2.1875 C-36.295 -0.2075 -35.965 1.7725 -35.625 3.8125 C-34.738125 3.02875 -33.85125 2.245 -32.9375 1.4375 C-24.57552543 -5.4625909 -8.97434376 -6.7980654 0 0 Z " fill="#8ED4CF" transform="translate(894.625,124.1875)"/>
<path d="M0 0 C6.25560121 7.4079488 6.5305769 15.70385997 6.47265625 24.9296875 C6.4712413 25.78684357 6.46982635 26.64399963 6.46836853 27.52713013 C6.46280022 30.2472899 6.45025364 32.96736538 6.4375 35.6875 C6.4324809 37.53906131 6.42791871 39.39062391 6.42382812 41.2421875 C6.41284117 45.76565715 6.39559852 50.28906432 6.375 54.8125 C2.085 54.8125 -2.205 54.8125 -6.625 54.8125 C-6.654729 53.38369507 -6.654729 53.38369507 -6.68505859 51.92602539 C-6.76179437 48.35302668 -6.85039978 44.78039966 -6.94238281 41.20776367 C-6.98039443 39.66877645 -7.01529293 38.12970876 -7.046875 36.59057617 C-6.52144738 22.85275768 -6.52144738 22.85275768 -11.3828125 10.77734375 C-15.95272519 8.81084822 -20.76817948 9.2273409 -25.625 9.8125 C-30.13834264 11.95039915 -32.56785326 14.265123 -34.625 18.8125 C-35.5217365 23.20733806 -35.8074398 27.48263046 -35.94140625 31.9609375 C-35.96218735 32.61832916 -35.98296844 33.27572083 -36.00437927 33.95303345 C-36.06920753 36.03109362 -36.12844564 38.10926856 -36.1875 40.1875 C-36.23074888 41.60548011 -36.27436509 43.02344907 -36.31835938 44.44140625 C-36.42550355 47.8983222 -36.52506973 51.35533804 -36.625 54.8125 C-40.915 54.8125 -45.205 54.8125 -49.625 54.8125 C-49.625 36.0025 -49.625 17.1925 -49.625 -2.1875 C-45.335 -2.1875 -41.045 -2.1875 -36.625 -2.1875 C-36.295 -0.2075 -35.965 1.7725 -35.625 3.8125 C-34.738125 3.02875 -33.85125 2.245 -32.9375 1.4375 C-24.57552543 -5.4625909 -8.97434376 -6.7980654 0 0 Z " fill="#4A4C9F" transform="translate(561.625,124.1875)"/>
<path d="M0 0 C4.29 0 8.58 0 13 0 C13.01981934 0.95253662 13.03963867 1.90507324 13.06005859 2.88647461 C13.13679437 6.45947332 13.22539978 10.03210034 13.31738281 13.60473633 C13.35539443 15.14372355 13.39029293 16.68279124 13.421875 18.22192383 C12.89644738 31.95974232 12.89644738 31.95974232 17.7578125 44.03515625 C22.32772519 46.00165178 27.14317948 45.5851591 32 45 C36.51334264 42.86210085 38.94285326 40.547377 41 36 C41.8967365 31.60516194 42.1824398 27.32986954 42.31640625 22.8515625 C42.33718735 22.19417084 42.35796844 21.53677917 42.37937927 20.85946655 C42.44420753 18.78140638 42.50344564 16.70323144 42.5625 14.625 C42.60574888 13.20701989 42.64936509 11.78905093 42.69335938 10.37109375 C42.80050355 6.9141778 42.90006973 3.45716196 43 0 C47.29 0 51.58 0 56 0 C56 18.81 56 37.62 56 57 C51.71 57 47.42 57 43 57 C42.505 54.03 42.505 54.03 42 51 C41.113125 51.78375 40.22625 52.5675 39.3125 53.375 C33.05345756 58.51583764 26.06651513 59.37072062 18.1171875 58.7890625 C11.9520272 57.898726 8.17302102 56.69464865 4 52 C0.18188057 44.75873901 -0.14780861 37.87127656 -0.09765625 29.8828125 C-0.0962413 29.02565643 -0.09482635 28.16850037 -0.09336853 27.28536987 C-0.08780022 24.5652101 -0.07525364 21.84513462 -0.0625 19.125 C-0.0574809 17.27343869 -0.05291871 15.42187609 -0.04882812 13.5703125 C-0.03784117 9.04684285 -0.02059852 4.52343568 0 0 Z " fill="#8ED4CF" transform="translate(930,122)"/>
<path d="M0 0 C4.95 0 9.9 0 15 0 C15.38333496 1.00377686 15.76666992 2.00755371 16.16162109 3.04174805 C17.58879791 6.77855258 19.01649042 10.51515992 20.44433594 14.25170898 C21.06133791 15.86656436 21.67820146 17.48147262 22.29492188 19.09643555 C23.18322636 21.42250383 24.07203432 23.7483792 24.9609375 26.07421875 C25.23497406 26.79212082 25.50901062 27.51002289 25.79135132 28.24967957 C27.16594566 31.84486457 28.55792209 35.43131353 30 39 C32.30604766 35.54092851 33.59730159 31.96442127 35.00390625 28.0859375 C35.28725327 27.31569244 35.57060028 26.54544739 35.86253357 25.75186157 C36.76624708 23.29425541 37.66481237 20.83481304 38.5625 18.375 C39.46416256 15.90820092 40.36696979 13.44184806 41.2731781 10.97671509 C41.83686108 9.44303826 42.39785363 7.9083695 42.95594788 6.37265015 C44.88764719 1.11235281 44.88764719 1.11235281 46 0 C48.35313555 -0.07271741 50.70833668 -0.08370868 53.0625 -0.0625 C54.35285156 -0.05347656 55.64320313 -0.04445313 56.97265625 -0.03515625 C57.97167969 -0.02355469 58.97070312 -0.01195313 60 0 C59.37751401 3.57851784 58.41979761 6.75788655 57.06640625 10.12573242 C56.47073853 11.61703926 56.47073853 11.61703926 55.86303711 13.13847351 C55.21927124 14.73088615 55.21927124 14.73088615 54.5625 16.35546875 C54.12236572 17.45345291 53.68223145 18.55143707 53.22875977 19.68269348 C51.82319894 23.18592801 50.41156945 26.68668285 49 30.1875 C48.04910288 32.55648962 47.09857765 34.92562855 46.1484375 37.29492188 C44.41229468 41.61829374 42.67602629 45.94160998 40.93359375 50.26245117 C40.58353271 51.13117355 40.23347168 51.99989594 39.87280273 52.89494324 C39.29675217 54.28428252 38.67262142 55.65475715 38 57 C33.05 57 28.1 57 23 57 C18.976578 48.38819732 15.37322087 39.64923528 11.86108398 30.82080078 C10.93865805 28.50290998 10.01162962 26.18689996 9.08398438 23.87109375 C5.92221231 15.95856951 2.85463145 8.02998572 0 0 Z " fill="#4A4C9F" transform="translate(569,122)"/>
<path d="M0 0 C4.29 0 8.58 0 13 0 C13 18.81 13 37.62 13 57 C8.71 57 4.42 57 0 57 C0 38.19 0 19.38 0 0 Z " fill="#8ED4CF" transform="translate(909,122)"/>
<path d="M0 0 C3.27593689 2.5452745 5.32676302 4.93301158 6.15625 8.98828125 C6.2951085 13.66607686 5.85432799 17.62798828 2.96875 21.42578125 C-0.52682496 24.61063843 -3.03824526 25.89832519 -7.79296875 26.05078125 C-13.28143053 25.71624644 -16.10961642 23.98913865 -19.84375 19.98828125 C-22.22325023 15.33273733 -22.37098453 10.9345505 -20.84375 5.98828125 C-19.01440587 2.78163169 -16.72016031 0.54821006 -13.59375 -1.44921875 C-8.91871806 -2.40547528 -4.26301752 -2.33924055 0 0 Z " fill="#4A4C9F" transform="translate(162.84375,2.01171875)"/>
<path d="M0 0 C4.09163098 1.85983226 5.60891912 3.35660888 7.9375 7.1875 C9.22166395 11.79538241 9.42885042 15.4121851 8 20 C5.25185778 23.39901801 2.21918049 26.67151545 -2.26953125 27.3359375 C-7.9950897 27.42388771 -11.65590623 27.13218676 -16 23 C-19.26365869 17.52547575 -19.35678968 14.00864001 -18 8 C-14.44064754 -0.00854303 -8.08664924 -1.14042489 0 0 Z " fill="#4A4C9F" transform="translate(109,0)"/>
<path d="M0 0 C3.27593689 2.5452745 5.32676302 4.93301158 6.15625 8.98828125 C6.21482513 13.57387699 5.77390628 16.9872521 3.34375 20.92578125 C-1.14844177 25.16127635 -5.12401657 25.48362673 -11.14453125 25.37109375 C-15.46732365 24.75802044 -16.99931399 23.2703228 -19.84375 19.98828125 C-22.28732377 16.16355708 -22.0671983 12.56923986 -21.44921875 8.20703125 C-20.21983073 3.70191903 -17.51674716 1.05714055 -13.59375 -1.44921875 C-8.91871806 -2.40547528 -4.26301752 -2.33924055 0 0 Z " fill="#4A4C9F" transform="translate(32.84375,162.01171875)"/>
<path d="M0 0 C3.43362902 1.6389314 5.39258243 4.04925946 7.4375 7.25 C8.39375653 11.92503194 8.3275218 16.58073248 5.98828125 20.84375 C3.44300675 24.11968689 1.05526967 26.17051302 -3 27 C-7.71384906 27.13992873 -11.64112577 26.6996339 -15.4375 23.75 C-18.53642097 20.42432871 -19.96862132 18.45650238 -20.02734375 13.859375 C-19.69915818 8.77670613 -18.83044503 5.61156245 -15 2 C-10.30447872 -0.87231453 -5.33541298 -0.75668665 0 0 Z " fill="#4A4C9F" transform="translate(20,111)"/>
<path d="M0 0 C4.18110801 1.86656608 5.60064569 3.33011536 7.9375 7.25 C9.16993573 11.59977315 9.42965627 14.70231377 8 19 C6.13840953 22.24346339 3.88732542 24.48628529 0.625 26.375 C-4.3304429 27.55486736 -7.69720218 27.70150652 -12.25 25.25 C-16.33636711 21.90660873 -18.04239096 19.85729047 -18.875 14.625 C-19.31642734 9.02439062 -17.57955757 5.87572462 -14 1.625 C-9.40336731 -0.86484271 -5.11149125 -0.7280685 0 0 Z " fill="#4A4C9F" transform="translate(63,22)"/>
<path d="M0 0 C4.0011912 2.07219586 6.51229786 4.05622045 8.10546875 8.2734375 C8.65897384 12.55335715 8.60686122 16.08592901 6.91796875 20.0859375 C2.08881683 25.9142243 2.08881683 25.9142243 -2.41796875 26.73046875 C-7.55901818 27.03329769 -11.0000874 26.78672901 -15.01953125 23.3984375 C-18.24782457 20.20103694 -19.07637507 18.06202058 -19.20703125 13.5234375 C-19.14378451 8.65343831 -18.29089154 5.9379315 -14.89453125 2.2734375 C-10.15846733 -0.88393844 -5.49116786 -2.10589118 0 0 Z " fill="#4A4C9F" transform="translate(61.89453125,200.7265625)"/>
<path d="M0 0 C3.945119 2.08421381 6.66264249 4.20768797 9 8 C9.73238075 12.81791647 9.60981191 17.45942255 7.8125 22 C5.01009794 25.09230572 2.89544321 26.74008973 -1.3359375 27.3203125 C-5.67209545 27.51563493 -8.46855793 27.25122716 -12.4375 25.375 C-16.31734009 21.77905065 -17.7708009 18.80085011 -18.4375 13.5625 C-17.90696224 9.24240683 -16.78313447 6.34494733 -14 3 C-9.59672466 -0.10230763 -5.25630342 -0.95473775 0 0 Z " fill="#4A4C9F" transform="translate(30,61)"/>
<path d="M0 0 C3.13594153 1.26772104 4.56546548 2.52051364 6.8125 5 C8.65473845 9.65407608 8.78063124 14.07045828 8 19 C6.38735434 22.2380901 4.06259073 24.19389668 1.1875 26.375 C-3.80523661 27.80149617 -8.20565767 27.7174622 -12.8125 25.375 C-16.35256562 22.73730404 -17.61235454 21.16293638 -19 17 C-19.559524 11.77777599 -18.9224897 8.38373454 -16 4 C-11.09746912 -0.54380911 -6.37918006 -0.87473707 0 0 Z " fill="#4A4C9F" transform="translate(206,23)"/>
<path d="M0 0 C2.625 1.5 2.625 1.5 4 4 C4.76550426 7.9741072 4.58535075 10.93572591 2.625 14.5 C-1.4690981 16.83948463 -5.40322896 16.74955668 -10 16 C-13.19333279 13.97495969 -13.79635913 12.63807473 -14.9375 9.0625 C-15.01221891 5.40127319 -14.21363944 3.8695326 -12 1 C-8.2941599 -0.85292005 -4.04532833 -0.45020589 0 0 Z " fill="#8ED4CF" transform="translate(921,100)"/>
</svg>
